<svg xmlns="http://www.w3.org/2000/svg" width="500" height="500" viewBox="0 0 500 500"><rect x="0" y="0" width="500" height="500" fill="#282827"/><g transform="translate(144,236)translate(106,36)rotate(347.11929879631543)translate(-106,-36)" opacity="1"><path transform="translate(6,0)rotate(0)" d="M5.17 12.51L5.63 12.51L6.07 12.97L6.07 13.44L6.54 12.97L8.87 12.97L8.87 12.97Q9.81 12.97 9.75 15.31L9.75 15.31L10.22 15.31L10.22 15.31Q10.28 13.91 11.21 13.91L11.21 13.91L11.21 13.91Q12.14 13.91 12.09 15.31L12.09 15.31L15.39 14.84L20.39 15.77L22.26 15.31L22.26 15.31Q25.83 15.31 27.75 19.04L27.75 19.04L27.26 22.31L27.70 22.78L27.70 23.25L26.68 26.05L26.21 26.05L26.24 25.12L25.77 25.12L25.77 25.12Q22.15 33.91 15.55 37.26L15.55 37.26L7.97 40.53L7.72 48.47L8.11 50.81L8.11 50.81Q7.17 50.81 5.61 55.48L5.61 55.48L5.14 55.95L4.67 55.95L0.99 54.08L1.59 50.34L0.25 48.47L1.40 41.93L0.93 41.47L2.64 32.59L2.17 32.12L2.67 31.66L3.60 31.66L3.54 33.52L4.01 33.52L4.09 31.19L3.68 29.79L4.62 29.79L4.67 27.45L3.76 26.52L3.71 28.39L3.24 28.39L3.24 28.39Q3.35 25.42 0.60 23.72L0.60 23.72L0.22 20.91L0.30 19.04L0.30 19.04Q6.43 16.54 6.46 15.77L6.46 15.77L6.48 15.31L5.58 14.37L5.11 14.84L4.67 12.97L5.17 12.51ZM10.36 25.12L9.70 30.72L10.63 30.72L10.63 30.72Q16.65 28.19 21.18 22.31L21.18 22.31L19.78 22.31L19.78 22.31Q10.41 22.95 10.36 25.12L10.36 25.12ZM22.06 24.18L21.60 24.18L21.60 24.18Q20.11 26.82 9.64 32.12L9.64 32.12L9.18 32.59L9.18 33.06L10.11 33.06L10.11 33.06Q17.01 30.94 22.06 24.18L22.06 24.18ZM3.54 33.99L2.61 33.99L2.58 34.46L3.02 34.93L2.56 35.39L2.50 36.33L3.43 36.33L3.54 33.99ZM29.43 18.36L37.84 14.15L43.44 14.15L43.44 14.15Q53.25 15.99 53.25 22.56L53.25 22.56L53.25 25.36L48.58 31.90L49.05 31.90L53.72 27.70L53.72 28.63L53.72 28.63Q51.33 33.96 47.64 35.64L47.64 35.64L44.84 36.57L44.84 38.44L44.84 38.44Q45.86 38.44 54.65 50.59L54.65 50.59L54.65 50.59Q56.52 51.36 58.39 54.32L58.39 54.32L58.39 54.79L56.05 52.92L56.05 53.39L56.05 53.39Q58.39 55.86 58.39 57.13L58.39 57.13L57.92 57.13L55.59 58.53L55.12 58.53L54.18 57.13L53.72 57.59L53.25 57.59L53.25 57.59Q43.91 49.96 40.17 42.18L40.17 42.18L37.84 37.51L37.84 37.51Q36.19 37.51 35.97 43.11L35.97 43.11L35.97 43.11Q36.27 47.79 35.50 48.80L35.50 48.80L35.50 48.80Q34.13 49.93 35.03 51.05L35.03 51.05L35.03 51.99L33.63 51.99L33.63 51.99Q32.70 51.99 32.70 50.12L32.70 50.12L32.23 50.12L32.23 50.12Q32.23 51.99 30.47 51.52L30.47 51.52L28.41 48.77L28.96 44.52L28.96 42.65L31.76 29.57L32.23 29.57L32.23 31.44L32.70 31.44L35.03 21.63L35.03 21.63Q34.10 21.63 34.10 23.50L34.10 23.50L33.63 23.50L33.63 22.56L30.83 22.56L30.83 22.09L30.83 22.09Q30.83 21.16 33.63 20.69L33.63 20.69L33.63 20.23L32.70 20.23L29.89 21.16L29.43 21.16L29.43 21.16Q29.43 20.23 31.30 20.23L31.30 20.23L31.30 19.76L31.30 19.76Q29.43 19.76 29.43 18.36L29.43 18.36ZM40.64 20.23L38.30 30.97L38.77 30.97L38.77 30.97Q46.11 27.45 49.05 23.50L49.05 23.50L49.05 22.56L49.05 22.56Q49.05 20.97 43.44 19.29L43.44 19.29L40.64 20.23ZM49.51 20.69L47.64 19.29L47.64 19.29Q48.58 21.41 49.51 21.63L49.51 21.63L49.51 20.69ZM50.91 22.09L50.45 22.09L49.98 24.43L50.45 24.43L50.91 23.96L50.91 22.09ZM32.70 25.36L33.16 23.50L33.63 23.50L33.63 24.90L33.16 26.77L32.70 26.77L32.70 25.36ZM49.51 25.36L49.05 25.36L46.71 28.63L47.18 28.63L49.51 25.83L49.51 25.36ZM53.72 27.70L53.72 26.30L54.65 26.30L54.18 27.70L53.72 27.70ZM32.23 29.57L32.23 27.70L32.70 27.70L32.70 29.57L32.23 29.57ZM31.76 33.77L31.30 33.77L31.30 35.64L31.76 35.64L31.76 33.77ZM45.31 47.79L45.31 47.79L45.31 48.25L47.18 50.12L47.18 50.12Q46.27 48.01 45.31 47.79ZM49.51 52.46L47.64 51.05L47.64 51.52L49.51 52.92L49.51 52.46ZM76.77 14.26L76.77 14.26L76.77 14.26Q82.27 14.26 87.05 17.53L87.05 17.53L86.58 18.00L86.58 18.47L88.45 21.27L87.51 21.27L87.05 20.80L86.58 20.80L87.98 31.08L88.45 31.08L88.45 31.08Q88.45 28.74 89.38 28.74L89.38 28.74L89.38 30.61L89.38 30.61Q89.38 33.25 84.71 42.76L84.71 42.76L85.18 42.76L85.18 42.76Q81.88 47.29 75.37 51.16L75.37 51.16L73.03 51.63L72.57 51.63L72.57 51.63Q61.47 51.63 58.55 42.76L58.55 42.76L56.68 39.95L57.15 39.49L56.68 36.22L56.68 35.28L56.68 35.28Q56.68 31.41 64.16 21.74L64.16 21.74L64.16 22.20L64.16 22.20Q60.72 26.82 58.55 32.48L58.55 32.48L58.55 32.95L59.02 32.95L59.02 32.95Q60.72 26.11 71.63 15.67L71.63 15.67L68.36 17.53L67.89 17.53L67.89 17.53Q67.89 15.39 76.77 14.26ZM76.30 21.27L74.43 22.20L73.97 21.74L73.97 22.20L74.43 22.67L71.16 25.47L71.16 25.47Q67.29 25.47 63.69 38.55L63.69 38.55L63.69 38.55Q63.69 42.29 67.89 45.09L67.89 45.09L68.36 45.09L68.36 45.09Q73.47 45.09 80.04 34.35L80.04 34.35L80.04 34.35Q82.38 29.24 82.38 26.88L82.38 26.88L82.38 23.14L82.38 23.14Q82.38 21.85 77.70 21.27L77.70 21.27L77.24 21.27L76.77 21.74L76.30 21.74L76.30 21.27ZM87.98 25.94L87.98 23.61L88.91 23.61L88.91 25.94L87.98 25.94ZM64.63 28.74L64.16 28.74L62.76 31.55L63.22 31.55L64.63 28.74ZM82.84 31.55L82.38 31.55L80.51 36.22L81.91 36.22L83.31 32.95L82.84 31.55ZM86.11 33.41L85.64 33.41L85.18 34.82L85.18 35.75L85.64 35.75L86.11 33.88L86.11 33.41ZM58.55 35.28L58.09 35.28L58.09 39.02L58.55 39.02L58.55 35.28ZM80.51 36.68L80.04 36.68L78.17 39.02L78.64 39.02L80.51 36.68ZM67.43 48.36L65.09 46.96L65.09 47.43L67.43 48.83L67.43 48.36ZM110.46 13.58L112.79 13.58L112.79 15.91L114.19 15.91L114.19 14.51L116.06 14.51L116.06 14.51Q111.56 52.76 106.61 52.76L106.61 52.76L106.61 52.76Q106.61 53.69 101.94 55.09L101.94 55.09L101.47 54.63L101.00 54.63L98.67 55.09L98.20 54.63L98.20 55.09L98.20 55.09Q93.53 55.09 93.53 50.89L93.53 50.89L90.26 49.49L90.26 48.09L90.73 48.55L92.13 48.55L92.13 48.09L92.13 48.09Q91.91 42.02 91.20 42.02L91.20 42.02L92.13 39.21L92.13 39.21Q93.39 39.21 94.93 37.81L94.93 37.81L96.80 37.81L97.27 40.61L98.20 40.61L98.20 39.68L97.73 39.21L97.73 38.75L98.20 38.28L99.14 38.28L99.14 38.28Q99.14 39.68 100.54 39.68L100.54 39.68L100.07 42.95L100.07 44.35L100.07 44.35Q100.37 47.15 101.47 47.15L101.47 47.15L102.87 42.95L103.34 43.42L104.27 43.42L104.27 43.42Q106.36 43.42 109.52 16.85L109.52 16.85L109.99 14.04L110.46 13.58ZM104.74 37.34L104.74 35.48L105.21 35.48L105.21 37.34L104.74 37.34ZM103.34 42.48L104.27 37.81L104.74 37.81L104.74 37.81Q104.74 39.21 105.68 39.21L105.68 39.21L105.68 39.21Q105.68 40.15 104.27 40.15L104.27 40.15L104.74 40.61L104.74 41.08L103.81 42.02L104.27 42.02L104.74 41.55L104.74 42.48L103.34 42.95L103.34 42.48ZM92.60 39.68L92.13 39.68L92.13 42.02L92.60 42.02L92.60 39.68ZM125.46 14.70L141.86 14.40L144.12 15.97L144.12 15.97Q143.13 20.12 140.54 19.95L140.54 19.95L128.34 20.50L128.29 21.44L130.60 21.60L133.43 21.33L133.87 21.85L134.33 21.87L137.63 21.60L138.56 21.68L138.54 22.15L127.68 23.28L126.83 29.32L127.30 29.35L139.99 28.33L140.41 28.83L140.38 29.29L139.44 29.21L139.44 29.68L142.66 30.39L142.63 30.86L142.63 30.86Q141.61 33.47 129.22 35.09L129.22 35.09L124.52 35.26L124.96 35.72L122.71 41.66L122.24 41.66L122.52 37.45L122.05 37.43L121.14 43.91L121.14 43.91Q135.13 42.04 140.90 42.43L140.90 42.43L143.18 43.06L143.15 43.99L142.22 43.94L142.63 44.43L142.55 45.83L142.55 45.83Q141.20 47.59 136.83 47.32L136.83 47.32L136.81 47.79L140.54 48.03L140.46 48.97L118.73 52.15L118.26 52.13L118.26 52.13Q116.01 51.63 116.01 50.67L116.01 50.67L116.01 50.59L116.09 49.19L117.38 44.13L116.94 43.64L117.87 43.66L117.71 46.00L118.18 46.05L118.18 46.05Q118.45 43.72 119.28 43.80L119.28 43.80L118.84 43.28L119.17 38.64L118.23 38.55L117.60 40.86L118.12 40.42L118.59 40.45L118.40 43.25L117.93 43.20L118.01 41.82L117.55 41.80L117.49 42.73L117.02 42.70L117.08 41.77L118.56 33.88L118.09 33.85L119.17 31.60L118.73 31.11L118.75 30.64L119.77 22.75L120.21 23.25L120.68 23.28L120.73 22.34L120.43 19.98L121.17 15.80L121.25 14.40L121.72 14.46L122.16 14.95L122.66 14.51L123.12 14.57L123.56 15.03L124.06 14.59L125.46 14.70ZM118.95 34.87L118.48 34.82L118.26 38.09L118.73 38.11L118.95 34.87ZM129.63 36.05L133.89 35.42L134.36 35.42L134.31 35.89L125.84 36.74L125.40 36.22L125.43 35.78L129.66 35.59L129.63 36.05ZM171.43 12.92L171.43 12.92L171.89 13.38L171.89 13.85L171.43 14.32L170.96 13.85L170.49 13.85L166.29 16.65L165.82 16.65L165.82 16.65Q165.82 15.42 171.43 12.92ZM153.21 13.85L153.21 13.85L153.68 18.06L153.68 18.06Q154.61 18.06 155.08 15.25L155.08 15.25L155.55 15.25L156.01 17.12L154.61 24.59L159.75 20.86L160.22 20.86L154.61 26.00L154.61 26.46L165.35 18.52L165.82 18.99L165.82 18.99Q172.11 13.85 174.23 13.85L174.23 13.85L174.70 13.85L175.16 15.72L171.43 19.46L171.89 19.46L171.89 19.46Q172.83 17.59 174.70 17.59L174.70 17.59L175.16 18.06L175.16 17.59L174.70 17.12L175.16 16.65L176.57 16.65L177.03 18.06L177.03 18.06Q173.52 19.70 160.68 30.20L160.68 30.20L160.68 30.20Q163.84 37.10 171.89 48.88L171.89 48.88L171.89 49.82L171.43 53.09L170.96 52.62L170.49 52.62L170.03 54.49L168.16 54.49L168.16 53.56L167.69 53.56L167.69 54.49L166.76 54.49L166.76 54.49Q166.76 52.84 156.48 37.21L156.48 37.21L155.55 34.40L153.21 34.87L153.21 34.87Q152.61 46.11 150.27 48.88L150.27 48.88L150.27 49.35L145.60 48.88L145.60 47.48L146.07 44.21L146.07 44.21Q144.66 44.21 144.66 41.41L144.66 41.41L144.66 41.41Q145.43 36.74 146.20 36.74L146.20 36.74L145.74 36.27L145.74 36.27Q147.14 23.41 148.54 20.86L148.54 20.86L148.07 19.46L149.47 15.72L149.47 15.25L149.01 14.79L149.01 14.32L149.94 14.32L149.94 17.59L150.41 17.59L150.87 16.19L150.41 15.72L150.41 15.25L150.41 15.25Q150.87 13.85 153.21 13.85ZM163.49 18.52L165.35 16.65L165.82 16.65L163.95 18.52L163.49 18.52ZM149.94 18.99L149.47 18.99L149.01 21.79L149.01 23.66L149.47 23.66L149.94 19.46L149.94 18.99ZM160.22 20.86L163.02 18.52L163.49 18.52L160.68 20.86L160.22 20.86ZM169.56 20.39L169.09 20.39L167.22 21.79L166.76 22.26L166.76 22.73L167.22 22.73L169.09 21.33L169.56 20.86L169.56 20.39ZM162.55 48.42L161.15 47.02L161.62 47.02L163.02 48.42L162.55 48.42ZM164.89 53.56L163.02 48.42L163.02 48.42Q164.20 48.42 165.35 53.09L165.35 53.09L165.35 53.56L164.89 53.56ZM177.86 14.48L203.08 13.55L204.48 14.02L204.48 14.95L203.08 14.95L204.01 16.35L204.01 16.35Q203.00 18.69 196.54 18.69L196.54 18.69L193.27 19.15L192.80 20.56L193.27 20.56L193.27 20.56Q191.87 23.88 187.67 50.45L187.67 50.45L189.07 56.52L188.60 56.52L188.60 56.52Q187.56 56.52 186.73 51.85L186.73 51.85L187.20 47.18L187.20 46.71L186.73 46.71L186.73 47.65L186.73 47.65Q185.33 47.65 185.33 48.58L185.33 48.58L185.33 49.05L186.26 56.52L186.26 56.99L185.33 56.99L183.46 55.59L182.99 56.06L182.53 56.06L182.53 56.06Q180.66 52.02 180.66 49.05L180.66 49.05L181.13 49.52L181.59 49.52L180.66 46.25L182.06 45.78L182.06 43.44L181.13 43.44L181.13 42.98L181.13 42.98Q182.53 42.98 182.53 42.04L182.53 42.04L182.53 41.58L181.59 41.58L181.59 41.58Q181.59 37.84 182.99 37.84L182.99 37.84L182.99 31.77L182.99 31.77Q183.74 31.11 184.86 21.96L184.86 21.96L181.59 22.42L175.05 21.96L175.05 21.49L177.39 21.02L177.39 21.49L177.86 21.02L184.86 21.02L184.86 19.62L177.39 20.56L176.92 20.09L176.46 20.09L173.65 20.56L172.25 19.62L172.72 17.29L172.25 16.82L172.25 16.82Q172.25 14.48 177.86 14.48L177.86 14.48ZM202.15 14.95L200.28 14.95L200.28 15.42L202.15 15.42L202.15 14.95ZM183.46 41.11L182.99 41.11L182.06 51.38L182.99 51.38L182.53 49.05L182.53 48.11L183.46 46.71L182.99 46.71L183.46 46.25L183.46 45.78L182.99 45.31L182.99 44.85L183.93 42.98L183.46 41.11Z" fill="#00bcd4"/></g><g transform="translate(102,296)translate(140,16.5)rotate(347.11929879631543)translate(-140,-16.5)" opacity="1"><path transform="translate(6,0)rotate(0)" d="M0.21 7.97L0.21 7.97L0.21 7.97Q0.21 7.48 0.85 7.11L0.85 7.11L0.85 7.11Q1.49 6.75 2.17 6.75L2.17 6.75L2.17 6.75Q3.02 6.75 3.19 7.36L3.19 7.36L6.92 20.15L8.92 11.94L8.92 11.94Q9.13 11.09 10.43 11.09L10.43 11.09L10.43 11.09Q11.71 11.09 11.92 11.94L11.92 11.94L13.93 20.15L17.65 7.36L17.65 7.36Q17.82 6.75 18.67 6.75L18.67 6.75L18.67 6.75Q19.35 6.75 19.99 7.11L19.99 7.11L19.99 7.11Q20.63 7.48 20.63 7.97L20.63 7.97L20.63 7.97Q20.63 8.12 20.58 8.26L20.58 8.26L15.91 23.10L15.91 23.10Q15.55 24.14 13.90 24.14L13.90 24.14L13.90 24.14Q13.19 24.14 12.63 23.87L12.63 23.87L12.63 23.87Q12.06 23.60 11.94 23.10L11.94 23.10L10.43 16.73L8.90 23.10L8.90 23.10Q8.78 23.60 8.21 23.87L8.21 23.87L8.21 23.87Q7.65 24.14 6.94 24.14L6.94 24.14L6.94 24.14Q6.21 24.14 5.64 23.87L5.64 23.87L5.64 23.87Q5.07 23.60 4.93 23.10L4.93 23.10L0.26 8.26L0.26 8.26Q0.21 8.12 0.21 7.97ZM24.62 23.03L24.62 23.03L24.62 7.69L24.62 7.69Q24.62 7.22 25.07 6.98L25.07 6.98L25.07 6.98Q25.51 6.75 26.15 6.75L26.15 6.75L26.15 6.75Q26.79 6.75 27.24 6.98L27.24 6.98L27.24 6.98Q27.69 7.22 27.69 7.69L27.69 7.69L27.69 23.03L27.69 23.03Q27.69 23.48 27.23 23.74L27.23 23.74L27.23 23.74Q26.77 24 26.15 24L26.15 24L26.15 24Q25.51 24 25.07 23.74L25.07 23.74L25.07 23.74Q24.62 23.48 24.62 23.03ZM32.88 23.03L32.88 23.03L32.88 7.69L32.88 7.69Q32.88 7.31 33.16 7.03L33.16 7.03L33.16 7.03Q33.44 6.75 33.87 6.75L33.87 6.75L38.54 6.75L38.54 6.75Q44.14 6.75 44.14 11.68L44.14 11.68L44.14 11.68Q44.14 13.61 43.30 14.80L43.30 14.80L43.30 14.80Q42.46 15.98 41.04 16.40L41.04 16.40L44.14 22.14L44.14 22.14Q44.25 22.28 44.25 22.51L44.25 22.51L44.25 22.51Q44.25 23.10 43.64 23.61L43.64 23.61L43.64 23.61Q43.03 24.12 42.34 24.12L42.34 24.12L42.34 24.12Q41.66 24.12 41.28 23.39L41.28 23.39L37.93 16.87L35.95 16.87L35.95 23.03L35.95 23.03Q35.95 23.48 35.50 23.74L35.50 23.74L35.50 23.74Q35.05 24 34.41 24L34.41 24L34.41 24Q33.80 24 33.34 23.74L33.34 23.74L33.34 23.74Q32.88 23.48 32.88 23.03ZM35.95 9.44L35.95 14.46L38.54 14.46L38.54 14.46Q41.07 14.46 41.07 11.96L41.07 11.96L41.07 11.96Q41.07 9.44 38.54 9.44L38.54 9.44L35.95 9.44ZM54.92 21.29L54.92 21.29L54.92 21.29Q54.92 20.74 55.34 20.19L55.34 20.19L55.34 20.19Q55.75 19.63 56.27 19.63L56.27 19.63L56.27 19.63Q56.57 19.63 56.96 19.92L56.96 19.92L56.96 19.92Q57.35 20.20 57.72 20.54L57.72 20.54L57.72 20.54Q58.09 20.88 58.77 21.17L58.77 21.17L58.77 21.17Q59.45 21.45 60.28 21.45L60.28 21.45L60.28 21.45Q61.41 21.45 62.17 20.93L62.17 20.93L62.17 20.93Q62.92 20.41 62.92 19.40L62.92 19.40L62.92 19.40Q62.92 18.69 62.51 18.13L62.51 18.13L62.51 18.13Q62.10 17.58 61.43 17.21L61.43 17.21L61.43 17.21Q60.75 16.85 59.95 16.51L59.95 16.51L59.95 16.51Q59.15 16.16 58.33 15.74L58.33 15.74L58.33 15.74Q57.52 15.31 56.85 14.78L56.85 14.78L56.85 14.78Q56.17 14.25 55.76 13.37L55.76 13.37L55.76 13.37Q55.35 12.48 55.35 11.35L55.35 11.35L55.35 11.35Q55.35 10.10 55.86 9.14L55.86 9.14L55.86 9.14Q56.36 8.19 57.21 7.66L57.21 7.66L57.21 7.66Q58.06 7.12 59.03 6.88L59.03 6.88L59.03 6.88Q60.00 6.63 61.08 6.63L61.08 6.63L61.08 6.63Q61.70 6.63 62.38 6.71L62.38 6.71L62.38 6.71Q63.07 6.79 63.83 6.98L63.83 6.98L63.83 6.98Q64.60 7.17 65.08 7.57L65.08 7.57L65.08 7.57Q65.57 7.97 65.57 8.52L65.57 8.52L65.57 8.52Q65.57 9.04 65.24 9.59L65.24 9.59L65.24 9.59Q64.91 10.15 64.34 10.15L64.34 10.15L64.34 10.15Q64.13 10.15 63.18 9.70L63.18 9.70L63.18 9.70Q62.24 9.25 61.08 9.25L61.08 9.25L61.08 9.25Q59.81 9.25 59.11 9.73L59.11 9.73L59.11 9.73Q58.42 10.22 58.42 11.07L58.42 11.07L58.42 11.07Q58.42 11.75 58.98 12.26L58.98 12.26L58.98 12.26Q59.55 12.77 60.39 13.08L60.39 13.08L60.39 13.08Q61.22 13.40 62.20 13.89L62.20 13.89L62.20 13.89Q63.18 14.37 64.02 14.94L64.02 14.94L64.02 14.94Q64.86 15.50 65.43 16.58L65.43 16.58L65.43 16.58Q65.99 17.65 65.99 19.09L65.99 19.09L65.99 19.09Q65.99 21.55 64.45 22.88L64.45 22.88L64.45 22.88Q62.90 24.21 60.37 24.21L60.37 24.21L60.37 24.21Q58.13 24.21 56.53 23.29L56.53 23.29L56.53 23.29Q54.92 22.37 54.92 21.29ZM70.45 23.03L70.45 23.03L70.45 7.69L70.45 7.69Q70.45 7.22 70.90 6.98L70.90 6.98L70.90 6.98Q71.35 6.75 71.99 6.75L71.99 6.75L71.99 6.75Q72.62 6.75 73.07 6.98L73.07 6.98L73.07 6.98Q73.52 7.22 73.52 7.69L73.52 7.69L73.52 23.03L73.52 23.03Q73.52 23.48 73.06 23.74L73.06 23.74L73.06 23.74Q72.60 24 71.99 24L71.99 24L71.99 24Q71.35 24 70.90 23.74L70.90 23.74L70.90 23.74Q70.45 23.48 70.45 23.03ZM78.71 23.03L78.71 23.03L78.71 7.71L78.71 7.71Q78.71 7.24 79.16 6.99L79.16 6.99L79.16 6.99Q79.61 6.75 80.25 6.75L80.25 6.75L80.25 6.75Q81.10 6.75 81.55 7.05L81.55 7.05L81.55 7.05Q81.99 7.36 82.54 8.38L82.54 8.38L87.09 17.18L87.09 7.69L87.09 7.69Q87.09 7.22 87.54 6.98L87.54 6.98L87.54 6.98Q87.99 6.75 88.63 6.75L88.63 6.75L88.63 6.75Q89.26 6.75 89.71 6.98L89.71 6.98L89.71 6.98Q90.16 7.22 90.16 7.69L90.16 7.69L90.16 23.03L90.16 23.03Q90.16 23.48 89.70 23.74L89.70 23.74L89.70 23.74Q89.24 24 88.63 24L88.63 24L88.63 24Q87.38 24 86.86 23.03L86.86 23.03L81.78 13.54L81.78 23.03L81.78 23.03Q81.78 23.48 81.32 23.74L81.32 23.74L81.32 23.74Q80.86 24 80.25 24L80.25 24L80.25 24Q79.61 24 79.16 23.74L79.16 23.74L79.16 23.74Q78.71 23.48 78.71 23.03ZM95.35 23.06L95.35 23.06L95.35 7.69L95.35 7.69Q95.35 7.31 95.73 7.03L95.73 7.03L95.73 7.03Q96.11 6.75 96.70 6.75L96.70 6.75L100.88 6.75L100.88 6.75Q103.40 6.75 104.91 8.04L104.91 8.04L104.91 8.04Q106.42 9.34 106.42 12.15L106.42 12.15L106.42 18.60L106.42 18.60Q106.42 21.40 104.91 22.70L104.91 22.70L104.91 22.70Q103.40 24 100.88 24L100.88 24L96.70 24L96.70 24Q96.11 24 95.73 23.72L95.73 23.72L95.73 23.72Q95.35 23.43 95.35 23.06ZM98.42 9.44L98.42 21.31L100.88 21.31L100.88 21.31Q103.35 21.31 103.35 18.60L103.35 18.60L103.35 12.15L103.35 12.15Q103.35 9.44 100.88 9.44L100.88 9.44L98.42 9.44ZM118.48 23.06L118.48 23.06L118.48 7.69L118.48 7.69Q118.48 7.31 118.86 7.03L118.86 7.03L118.86 7.03Q119.24 6.75 119.83 6.75L119.83 6.75L124.01 6.75L124.01 6.75Q126.53 6.75 128.04 8.04L128.04 8.04L128.04 8.04Q129.55 9.34 129.55 12.15L129.55 12.15L129.55 18.60L129.55 18.60Q129.55 21.40 128.04 22.70L128.04 22.70L128.04 22.70Q126.53 24 124.01 24L124.01 24L119.83 24L119.83 24Q119.24 24 118.86 23.72L118.86 23.72L118.86 23.72Q118.48 23.43 118.48 23.06ZM121.55 9.44L121.55 21.31L124.01 21.31L124.01 21.31Q126.49 21.31 126.49 18.60L126.49 18.60L126.49 12.15L126.49 12.15Q126.49 9.44 124.01 9.44L124.01 9.44L121.55 9.44ZM134.46 18.74L134.46 18.74L134.46 7.69L134.46 7.69Q134.46 7.22 134.91 6.98L134.91 6.98L134.91 6.98Q135.36 6.75 136.00 6.75L136.00 6.75L136.00 6.75Q136.63 6.75 137.08 6.98L137.08 6.98L137.08 6.98Q137.53 7.22 137.53 7.69L137.53 7.69L137.53 18.74L137.53 18.74Q137.53 21.45 140.13 21.45L140.13 21.45L140.13 21.45Q142.72 21.45 142.72 18.74L142.72 18.74L142.72 7.69L142.72 7.69Q142.72 7.22 143.17 6.98L143.17 6.98L143.17 6.98Q143.62 6.75 144.26 6.75L144.26 6.75L144.26 6.75Q144.90 6.75 145.34 6.98L145.34 6.98L145.34 6.98Q145.79 7.22 145.79 7.69L145.79 7.69L145.79 18.74L145.79 18.74Q145.79 21.52 144.25 22.83L144.25 22.83L144.25 22.83Q142.70 24.14 140.13 24.14L140.13 24.14L140.13 24.14Q137.55 24.14 136.01 22.84L136.01 22.84L136.01 22.84Q134.46 21.55 134.46 18.74ZM137.51 4.27L137.51 4.27L137.51 4.27Q137.15 3.89 137.15 3.40L137.15 3.40L137.15 3.40Q137.15 2.90 137.51 2.53L137.51 2.53L137.51 2.53Q137.86 2.17 138.36 2.17L138.36 2.17L138.36 2.17Q138.85 2.17 139.20 2.53L139.20 2.53L139.20 2.53Q139.54 2.90 139.54 3.40L139.54 3.40L139.54 3.40Q139.54 3.89 139.20 4.27L139.20 4.27L139.20 4.27Q138.85 4.65 138.36 4.65L138.36 4.65L138.36 4.65Q137.86 4.65 137.51 4.27ZM141.04 4.27L141.04 4.27L141.04 4.27Q140.67 3.89 140.67 3.40L140.67 3.40L140.67 3.40Q140.67 2.90 141.02 2.53L141.02 2.53L141.02 2.53Q141.38 2.17 141.90 2.17L141.90 2.17L141.90 2.17Q142.37 2.17 142.72 2.53L142.72 2.53L142.72 2.53Q143.08 2.90 143.08 3.40L143.08 3.40L143.08 3.40Q143.08 3.89 142.72 4.27L142.72 4.27L142.72 4.27Q142.37 4.65 141.90 4.65L141.90 4.65L141.90 4.65Q141.40 4.65 141.04 4.27ZM150.06 21.29L150.06 21.29L150.06 21.29Q150.06 20.74 150.48 20.19L150.48 20.19L150.48 20.19Q150.89 19.63 151.41 19.63L151.41 19.63L151.41 19.63Q151.72 19.63 152.11 19.92L152.11 19.92L152.11 19.92Q152.50 20.20 152.86 20.54L152.86 20.54L152.86 20.54Q153.23 20.88 153.91 21.17L153.91 21.17L153.91 21.17Q154.60 21.45 155.42 21.45L155.42 21.45L155.42 21.45Q156.55 21.45 157.31 20.93L157.31 20.93L157.31 20.93Q158.07 20.41 158.07 19.40L158.07 19.40L158.07 19.40Q158.07 18.69 157.65 18.13L157.65 18.13L157.65 18.13Q157.24 17.58 156.57 17.21L156.57 17.21L156.57 17.21Q155.89 16.85 155.09 16.51L155.09 16.51L155.09 16.51Q154.29 16.16 153.47 15.74L153.47 15.74L153.47 15.74Q152.66 15.31 151.99 14.78L151.99 14.78L151.99 14.78Q151.32 14.25 150.90 13.37L150.90 13.37L150.90 13.37Q150.49 12.48 150.49 11.35L150.49 11.35L150.49 11.35Q150.49 10.10 151.00 9.14L151.00 9.14L151.00 9.14Q151.50 8.19 152.35 7.66L152.35 7.66L152.35 7.66Q153.20 7.12 154.17 6.88L154.17 6.88L154.17 6.88Q155.14 6.63 156.22 6.63L156.22 6.63L156.22 6.63Q156.84 6.63 157.52 6.71L157.52 6.71L157.52 6.71Q158.21 6.79 158.97 6.98L158.97 6.98L158.97 6.98Q159.74 7.17 160.22 7.57L160.22 7.57L160.22 7.57Q160.71 7.97 160.71 8.52L160.71 8.52L160.71 8.52Q160.71 9.04 160.38 9.59L160.38 9.59L160.38 9.59Q160.05 10.15 159.48 10.15L159.48 10.15L159.48 10.15Q159.27 10.15 158.32 9.70L158.32 9.70L158.32 9.70Q157.38 9.25 156.22 9.25L156.22 9.25L156.22 9.25Q154.95 9.25 154.25 9.73L154.25 9.73L154.25 9.73Q153.56 10.22 153.56 11.07L153.56 11.07L153.56 11.07Q153.56 11.75 154.12 12.26L154.12 12.26L154.12 12.26Q154.69 12.77 155.53 13.08L155.53 13.08L155.53 13.08Q156.37 13.40 157.35 13.89L157.35 13.89L157.35 13.89Q158.32 14.37 159.16 14.94L159.16 14.94L159.16 14.94Q160.00 15.50 160.57 16.58L160.57 16.58L160.57 16.58Q161.13 17.65 161.13 19.09L161.13 19.09L161.13 19.09Q161.13 21.55 159.59 22.88L159.59 22.88L159.59 22.88Q158.04 24.21 155.52 24.21L155.52 24.21L155.52 24.21Q153.27 24.21 151.67 23.29L151.67 23.29L151.67 23.29Q150.06 22.37 150.06 21.29ZM164.74 21.29L164.74 21.29L164.74 21.29Q164.74 20.74 165.16 20.19L165.16 20.19L165.16 20.19Q165.57 19.63 166.09 19.63L166.09 19.63L166.09 19.63Q166.40 19.63 166.79 19.92L166.79 19.92L166.79 19.92Q167.18 20.20 167.54 20.54L167.54 20.54L167.54 20.54Q167.91 20.88 168.59 21.17L168.59 21.17L168.59 21.17Q169.28 21.45 170.10 21.45L170.10 21.45L170.10 21.45Q171.24 21.45 171.99 20.93L171.99 20.93L171.99 20.93Q172.75 20.41 172.75 19.40L172.75 19.40L172.75 19.40Q172.75 18.69 172.33 18.13L172.33 18.13L172.33 18.13Q171.92 17.58 171.25 17.21L171.25 17.21L171.25 17.21Q170.57 16.85 169.77 16.51L169.77 16.51L169.77 16.51Q168.97 16.16 168.16 15.74L168.16 15.74L168.16 15.74Q167.34 15.31 166.67 14.78L166.67 14.78L166.67 14.78Q166.00 14.25 165.58 13.37L165.58 13.37L165.58 13.37Q165.17 12.48 165.17 11.35L165.17 11.35L165.17 11.35Q165.17 10.10 165.68 9.14L165.68 9.14L165.68 9.14Q166.18 8.19 167.03 7.66L167.03 7.66L167.03 7.66Q167.88 7.12 168.85 6.88L168.85 6.88L168.85 6.88Q169.82 6.63 170.91 6.63L170.91 6.63L170.91 6.63Q171.52 6.63 172.20 6.71L172.20 6.71L172.20 6.71Q172.89 6.79 173.65 6.98L173.65 6.98L173.65 6.98Q174.42 7.17 174.91 7.57L174.91 7.57L174.91 7.57Q175.39 7.97 175.39 8.52L175.39 8.52L175.39 8.52Q175.39 9.04 175.06 9.59L175.06 9.59L175.06 9.59Q174.73 10.15 174.16 10.15L174.16 10.15L174.16 10.15Q173.95 10.15 173.01 9.70L173.01 9.70L173.01 9.70Q172.06 9.25 170.91 9.25L170.91 9.25L170.91 9.25Q169.63 9.25 168.93 9.73L168.93 9.73L168.93 9.73Q168.24 10.22 168.24 11.07L168.24 11.07L168.24 11.07Q168.24 11.75 168.80 12.26L168.80 12.26L168.80 12.26Q169.37 12.77 170.21 13.08L170.21 13.08L170.21 13.08Q171.05 13.40 172.03 13.89L172.03 13.89L172.03 13.89Q173.01 14.37 173.84 14.94L173.84 14.94L173.84 14.94Q174.68 15.50 175.25 16.58L175.25 16.58L175.25 16.58Q175.81 17.65 175.81 19.09L175.81 19.09L175.81 19.09Q175.81 21.55 174.27 22.88L174.27 22.88L174.27 22.88Q172.72 24.21 170.20 24.21L170.20 24.21L170.20 24.21Q167.95 24.21 166.35 23.29L166.35 23.29L166.35 23.29Q164.74 22.37 164.74 21.29ZM180.28 23.03L180.28 23.03L180.28 7.71L180.28 7.71Q180.28 7.27 180.68 7.01L180.68 7.01L180.68 7.01Q181.08 6.75 181.62 6.75L181.62 6.75L190.02 6.75L190.02 6.75Q190.50 6.75 190.74 7.15L190.74 7.15L190.74 7.15Q190.99 7.55 190.99 8.07L190.99 8.07L190.99 8.07Q190.99 8.63 190.73 9.04L190.73 9.04L190.73 9.04Q190.47 9.44 190.02 9.44L190.02 9.44L183.34 9.44L183.34 14.16L186.93 14.16L186.93 14.16Q187.38 14.16 187.64 14.52L187.64 14.52L187.64 14.52Q187.90 14.89 187.90 15.39L187.90 15.39L187.90 15.39Q187.90 15.83 187.65 16.20L187.65 16.20L187.65 16.20Q187.40 16.57 186.93 16.57L186.93 16.57L183.34 16.57L183.34 21.31L190.02 21.31L190.02 21.31Q190.47 21.31 190.73 21.71L190.73 21.71L190.73 21.71Q190.99 22.11 190.99 22.68L190.99 22.68L190.99 22.68Q190.99 23.20 190.74 23.60L190.74 23.60L190.74 23.60Q190.50 24 190.02 24L190.02 24L181.62 24L181.62 24Q181.08 24 180.68 23.74L180.68 23.74L180.68 23.74Q180.28 23.48 180.28 23.03ZM195.14 23.03L195.14 23.03L195.14 7.69L195.14 7.69Q195.14 7.22 195.59 6.98L195.59 6.98L195.59 6.98Q196.04 6.75 196.68 6.75L196.68 6.75L196.68 6.75Q197.32 6.75 197.76 6.98L197.76 6.98L197.76 6.98Q198.21 7.22 198.21 7.69L198.21 7.69L198.21 21.31L203.97 21.31L203.97 21.31Q204.40 21.31 204.64 21.71L204.64 21.71L204.64 21.71Q204.89 22.11 204.89 22.65L204.89 22.65L204.89 22.65Q204.89 23.20 204.64 23.60L204.64 23.60L204.64 23.60Q204.40 24 203.97 24L203.97 24L196.49 24L196.49 24Q195.95 24 195.55 23.74L195.55 23.74L195.55 23.74Q195.14 23.48 195.14 23.03ZM208.93 23.06L208.93 23.06L208.93 7.69L208.93 7.69Q208.93 7.31 209.31 7.03L209.31 7.03L209.31 7.03Q209.68 6.75 210.27 6.75L210.27 6.75L214.45 6.75L214.45 6.75Q216.98 6.75 218.49 8.04L218.49 8.04L218.49 8.04Q220.00 9.34 220.00 12.15L220.00 12.15L220.00 18.60L220.00 18.60Q220.00 21.40 218.49 22.70L218.49 22.70L218.49 22.70Q216.98 24 214.45 24L214.45 24L210.27 24L210.27 24Q209.68 24 209.31 23.72L209.31 23.72L209.31 23.72Q208.93 23.43 208.93 23.06ZM212.00 9.44L212.00 21.31L214.45 21.31L214.45 21.31Q216.93 21.31 216.93 18.60L216.93 18.60L216.93 12.15L216.93 12.15Q216.93 9.44 214.45 9.44L214.45 9.44L212.00 9.44ZM224.79 18.74L224.79 18.74L224.79 12.15L224.79 12.15Q224.79 9.34 226.29 8.04L226.29 8.04L226.29 8.04Q227.79 6.75 230.31 6.75L230.31 6.75L230.31 6.75Q232.84 6.75 234.35 8.04L234.35 8.04L234.35 8.04Q235.86 9.34 235.86 12.15L235.86 12.15L235.86 18.74L235.86 18.74Q235.86 21.55 234.35 22.84L234.35 22.84L234.35 22.84Q232.84 24.14 230.31 24.14L230.31 24.14L230.31 24.14Q227.79 24.14 226.29 22.84L226.29 22.84L226.29 22.84Q224.79 21.55 224.79 18.74ZM227.86 12.15L227.86 18.74L227.86 18.74Q227.86 21.45 230.31 21.45L230.31 21.45L230.31 21.45Q232.79 21.45 232.79 18.74L232.79 18.74L232.79 12.15L232.79 12.15Q232.79 9.44 230.31 9.44L230.31 9.44L230.31 9.44Q227.86 9.44 227.86 12.15L227.86 12.15ZM240.84 23.03L240.84 23.03L240.84 7.69L240.84 7.69Q240.84 7.31 241.12 7.03L241.12 7.03L241.12 7.03Q241.41 6.75 241.83 6.75L241.83 6.75L246.50 6.75L246.50 6.75Q252.10 6.75 252.10 11.68L252.10 11.68L252.10 11.68Q252.10 13.61 251.26 14.80L251.26 14.80L251.26 14.80Q250.42 15.98 249.01 16.40L249.01 16.40L252.10 22.14L252.10 22.14Q252.22 22.28 252.22 22.51L252.22 22.51L252.22 22.51Q252.22 23.10 251.60 23.61L251.60 23.61L251.60 23.61Q250.99 24.12 250.30 24.12L250.30 24.12L250.30 24.12Q249.62 24.12 249.24 23.39L249.24 23.39L245.89 16.87L243.91 16.87L243.91 23.03L243.91 23.03Q243.91 23.48 243.46 23.74L243.46 23.74L243.46 23.74Q243.01 24 242.37 24L242.37 24L242.37 24Q241.76 24 241.30 23.74L241.30 23.74L241.30 23.74Q240.84 23.48 240.84 23.03ZM243.91 9.44L243.91 14.46L246.50 14.46L246.50 14.46Q249.03 14.46 249.03 11.96L249.03 11.96L249.03 11.96Q249.03 9.44 246.50 9.44L246.50 9.44L243.91 9.44ZM256.65 23.03L256.65 23.03L256.65 7.71L256.65 7.71Q256.65 7.27 257.05 7.01L257.05 7.01L257.05 7.01Q257.46 6.75 258.00 6.75L258.00 6.75L266.24 6.75L266.24 6.75Q266.71 6.75 266.94 7.14L266.94 7.14L266.94 7.14Q267.18 7.53 267.18 8.07L267.18 8.07L267.18 8.07Q267.18 8.63 266.93 9.04L266.93 9.04L266.93 9.04Q266.68 9.44 266.24 9.44L266.24 9.44L259.72 9.44L259.72 14.16L263.33 14.16L263.33 14.16Q263.78 14.16 264.03 14.51L264.03 14.51L264.03 14.51Q264.28 14.87 264.28 15.39L264.28 15.39L264.28 15.39Q264.28 15.86 264.03 16.21L264.03 16.21L264.03 16.21Q263.78 16.57 263.33 16.57L263.33 16.57L259.72 16.57L259.72 23.03L259.72 23.03Q259.72 23.48 259.26 23.74L259.26 23.74L259.26 23.74Q258.80 24 258.19 24L258.19 24L258.19 24Q257.55 24 257.10 23.74L257.10 23.74L257.10 23.74Q256.65 23.48 256.65 23.03Z" fill="#ff4081"/></g><g transform="translate(139,315)translate(112,50.5)rotate(0)translate(-112,-50.5) scale(1.191007890427274,1.191007890427274)" opacity="1"><defs class="defs"/><path fill="#FF4081" d="M2,42.774c-0.867,0-1.665-0.567-1.92-1.441c-0.309-1.061,0.301-2.171,1.361-2.479&#10;&#9;c0.799-0.232,81.088-23.434,184.34-38.831c1.097-0.164,2.11,0.591,2.272,1.683c0.164,1.092-0.59,2.11-1.683,2.273&#10;&#9;C83.401,19.333,3.356,42.462,2.56,42.694C2.373,42.748,2.185,42.774,2,42.774z M140.573,59.345V23.072c0-1.104-0.896-2-2-2&#10;&#9;s-2,0.896-2,2v36.273c0,5.832-4.744,10.576-10.576,10.576H50.542c-5.832,0-10.576-4.744-10.576-10.576V40.751c0-1.104-0.896-2-2-2&#10;&#9;s-2,0.896-2,2v18.594c0,8.037,6.539,14.576,14.576,14.576h75.455C134.034,73.921,140.573,67.382,140.573,59.345z" class="color c1"/><path fill="#00BCD4" d="M125.997,63.861H109.02c-1.104,0-2-0.896-2-2s0.896-2,2-2h16.978c0.284,0,0.516-0.23,0.516-0.516V28.102&#10;&#9;c0-1.104,0.896-2,2-2s2,0.896,2,2v31.243C130.513,61.835,128.487,63.861,125.997,63.861z M150.634,59.345V18.042&#10;&#9;c0-1.104-0.896-2-2-2s-2,0.896-2,2v41.304c0,11.379-9.258,20.637-20.637,20.637H50.542c-11.379,0-20.637-9.258-20.637-20.637V45.782&#10;&#9;c0-1.104-0.896-2-2-2s-2,0.896-2,2v13.563c0,13.586,11.052,24.637,24.637,24.637h75.455&#10;&#9;C139.582,83.982,150.634,72.931,150.634,59.345z" class="color c2"/></g><g transform="translate(146,84)translate(104,86)rotate(0)translate(-104,-86) scale(1.1059358982538974,1.1059358982538974)" opacity="1"><defs class="defs"/><path fill="#FF4081" d="M2,155.214c-0.867,0-1.665-0.567-1.92-1.441c-0.309-1.061,0.301-2.171,1.361-2.479&#10;&#9;c0.799-0.232,81.088-23.434,184.34-38.83c1.098-0.164,2.11,0.591,2.273,1.683c0.162,1.093-0.591,2.11-1.684,2.273&#10;&#9;C83.401,131.773,3.356,154.901,2.56,155.134C2.373,155.188,2.185,155.214,2,155.214z M138.573,112.313&#10;&#9;c0-8.49-4.052-16.604-10.838-21.705l-12.933-9.72c-5.044-3.791-9.241-33.603-9.241-43.659V26.604&#10;&#9;c4.224-0.377,7.546-3.936,7.546-8.255c0-4.57-3.719-8.288-8.288-8.288H67.091c-4.569,0-8.288,3.718-8.288,8.288&#10;&#9;c0,4.319,3.322,7.878,7.546,8.255v10.771c0,10.02-4.12,39.736-9.07,43.529l-12.675,9.711c-6.494,4.977-10.437,12.76-10.631,20.923&#10;&#9;c-0.005,0.21-0.007,21.419-0.007,21.63c0,1.104,0.896,2,2,2s2-0.896,2-2c0-0.211,0.003-21.42,0.009-21.63&#10;&#9;c0.192-6.927,3.549-13.523,9.062-17.748l12.675-9.711c7.572-5.802,10.638-41.209,10.638-46.704V24.637c0-1.104-0.896-2-2-2h-1.258&#10;&#9;c-2.364,0-4.288-1.924-4.288-4.288s1.924-4.288,4.288-4.288h37.729c2.364,0,4.288,1.924,4.288,4.288s-1.924,4.288-4.288,4.288&#10;&#9;h-1.258c-1.104,0-2,0.896-2,2v12.592c0,5.518,3.123,41.058,10.838,46.856l12.933,9.72c5.787,4.35,9.241,11.269,9.241,18.508&#10;&#9;c0,1.104,0.896,2,2,2S138.573,113.417,138.573,112.313z" class="color c1"/><path fill="#00BCD4" d="M146.634,114.313c-1.104,0-2-0.896-2-2c0-10.385-4.956-20.31-13.257-26.55l-12.933-9.72&#10;&#9;c-5.237-3.938-6.822-38.478-6.822-38.814v-5.109c0-0.682,0.347-1.316,0.921-1.684c4.148-2.661,6.625-7.18,6.625-12.087&#10;&#9;C119.168,10.437,112.73,4,104.819,4H67.091c-7.911,0-14.349,6.437-14.349,14.349c0,4.907,2.477,9.426,6.625,12.087&#10;&#9;c0.574,0.367,0.921,1.002,0.921,1.684v5.255c0,0.336-1.556,34.778-6.695,38.718l-12.675,9.712&#10;&#9;c-7.981,6.115-12.813,15.696-13.007,25.733c-0.004,0.21-0.006,21.419-0.006,21.63c0,1.104-0.896,2-2,2s-2-0.896-2-2&#10;&#9;c0-0.211,0.002-21.42,0.005-21.63c0.195-11.273,5.612-22.042,14.575-28.908l12.674-9.712c2.57-2.521,5.129-28.906,5.129-35.543&#10;&#9;v-4.201c-4.745-3.457-7.546-8.92-7.546-14.824C48.742,8.23,56.974,0,67.091,0h37.729c10.117,0,18.349,8.23,18.349,18.349&#10;&#9;c0,5.904-2.801,11.367-7.546,14.824v4.056c0,6.66,2.606,33.112,5.251,35.638l12.907,9.699c9.301,6.991,14.854,18.111,14.854,29.747&#10;&#9;C148.634,113.417,147.738,114.313,146.634,114.313z M125.997,111.537c0-1.104-0.896-2-2-2H48.542c-1.104,0-2,0.896-2,2s0.896,2,2,2&#10;&#9;h75.455C125.102,113.537,125.997,112.642,125.997,111.537z M99.941,85.333c0.883-0.663,1.062-1.916,0.398-2.8&#10;&#9;c-0.664-0.884-1.916-1.063-2.8-0.399c-11.079,8.313-22.07,0.349-22.544-0.002c-0.884-0.661-2.135-0.481-2.797,0.401&#10;&#9;c-0.663,0.884-0.484,2.137,0.398,2.8c0.092,0.068,6.176,4.531,14.217,4.531C90.865,89.864,95.413,88.731,99.941,85.333z&#10;&#9; M98.33,24.764c0-1.104-0.896-2-2-2H76.209c-1.104,0-2,0.896-2,2s0.896,2,2,2H96.33C97.435,26.764,98.33,25.868,98.33,24.764z" class="color c2"/></g></svg>